<?xml version="1.0" encoding="UTF-8" standalone="no"?>
<!-- Generator: Adobe Illustrator 18.0.0, SVG Export Plug-In . SVG Version: 6.00 Build 0)  -->

<svg
   xmlns:dc="http://purl.org/dc/elements/1.1/"
   xmlns:cc="http://creativecommons.org/ns#"
   xmlns:rdf="http://www.w3.org/1999/02/22-rdf-syntax-ns#"
   xmlns:svg="http://www.w3.org/2000/svg"
   xmlns="http://www.w3.org/2000/svg"
   xmlns:sodipodi="http://sodipodi.sourceforge.net/DTD/sodipodi-0.dtd"
   xmlns:inkscape="http://www.inkscape.org/namespaces/inkscape"
   version="1.1"
   id="Capa_1"
   x="0px"
   y="0px"
   viewBox="0 0 50 50"
   xml:space="preserve"
   sodipodi:docname="co2red.svg"
   inkscape:version="0.92.4 (5da689c313, 2019-01-14)"
   width="50"
   height="50"><metadata
   id="metadata13300"><rdf:RDF><cc:Work
       rdf:about=""><dc:format>image/svg+xml</dc:format><dc:type
         rdf:resource="http://purl.org/dc/dcmitype/StillImage" /><dc:title></dc:title></cc:Work></rdf:RDF></metadata><defs
   id="defs13298" /><sodipodi:namedview
   pagecolor="#ffffff"
   bordercolor="#666666"
   borderopacity="1"
   objecttolerance="10"
   gridtolerance="10"
   guidetolerance="10"
   inkscape:pageopacity="0"
   inkscape:pageshadow="2"
   inkscape:window-width="1440"
   inkscape:window-height="877"
   id="namedview13296"
   showgrid="false"
   inkscape:zoom="8"
   inkscape:cx="6.125"
   inkscape:cy="36.429137"
   inkscape:window-x="-8"
   inkscape:window-y="-8"
   inkscape:window-maximized="1"
   inkscape:current-layer="Capa_1"
   inkscape:pagecheckerboard="true" />

<path
   style="opacity:1;fill:#ff2a2a;fill-opacity:1;stroke:#000000;stroke-width:1.13385827;stroke-linecap:butt;stroke-linejoin:round;stroke-miterlimit:4;stroke-dasharray:none;stroke-dashoffset:0;stroke-opacity:1"
   id="path18601"
   sodipodi:type="arc"
   sodipodi:cx="25.203667"
   sodipodi:cy="25.065891"
   sodipodi:rx="24.125435"
   sodipodi:ry="23.586319"
   sodipodi:start="1.5783749"
   sodipodi:end="1.5783536"
   d="M 25.020832,48.651533 A 24.125435,23.586319 0 0 1 1.0789237,24.887268 24.125435,23.586319 0 0 1 25.386244,1.4802477 24.125435,23.586319 0 0 1 49.328412,25.244263 24.125435,23.586319 0 0 1 25.021346,48.651537"
   sodipodi:open="true" /><g
   id="g13265"
   transform="translate(0,-252.444)">
</g>
<g
   id="g13267"
   transform="translate(0,-252.444)">
</g>
<g
   id="g13269"
   transform="translate(0,-252.444)">
</g>
<g
   id="g13271"
   transform="translate(0,-252.444)">
</g>
<g
   id="g13273"
   transform="translate(0,-252.444)">
</g>
<g
   id="g13275"
   transform="translate(0,-252.444)">
</g>
<g
   id="g13277"
   transform="translate(0,-252.444)">
</g>
<g
   id="g13279"
   transform="translate(0,-252.444)">
</g>
<g
   id="g13281"
   transform="translate(0,-252.444)">
</g>
<g
   id="g13283"
   transform="translate(0,-252.444)">
</g>
<g
   id="g13285"
   transform="translate(0,-252.444)">
</g>
<g
   id="g13287"
   transform="translate(0,-252.444)">
</g>
<g
   id="g13289"
   transform="translate(0,-252.444)">
</g>
<g
   id="g13291"
   transform="translate(0,-252.444)">
</g>
<g
   id="g13293"
   transform="translate(0,-252.444)">
</g>
<g
   transform="matrix(0.11572352,0,0,0.10660356,7.541533,10.484122)"
   id="g14525">
	<path
   inkscape:connector-curvature="0"
   id="path14519"
   d="M 100.455,59.658 C 94.327,58.346 86.673,57.416 77.909,57.416 34.722,57.416 0,84.514 0,133.21 c 0,40.648 25.405,71.351 74.735,71.351 9.354,0 17.539,-0.925 24.03,-2.237 7.111,-1.442 11.735,-8.341 10.361,-15.468 -1.349,-6.971 -8.025,-11.555 -14.997,-10.314 -4.661,0.827 -9.72,1.345 -14.526,1.345 -28.794,0 -45.728,-18 -45.728,-46.582 0,-31.756 19.901,-47.213 45.517,-47.213 5.446,0 10.361,0.579 14.723,1.479 7.095,1.462 14.097,-2.898 15.895,-9.917 l 0.104,-0.413 c 0.862,-3.354 0.315,-6.91 -1.509,-9.85 -1.824,-2.942 -4.766,-5.01 -8.15,-5.733 z" />
	<path
   inkscape:connector-curvature="0"
   id="path14521"
   d="m 189.034,57.416 c -42.132,0 -69.443,31.973 -69.443,74.735 0,40.649 24.768,72.62 67.113,72.62 41.708,0 70.08,-28.369 70.08,-75.157 -10e-4,-39.379 -23.929,-72.198 -67.75,-72.198 z m -0.635,121.734 c -21.597,0 -34.722,-19.688 -34.722,-47.636 0,-27.73 12.702,-48.478 34.509,-48.478 22.232,0 34.511,22.015 34.511,47.636 0,27.731 -12.491,48.478 -34.298,48.478 z" />
	<path
   inkscape:connector-curvature="0"
   id="path14523"
   d="m 295.83,231.804 h -19.301 v -0.212 l 6.346,-5.286 c 9.943,-8.884 18.299,-18.087 18.299,-29.617 0,-12.484 -8.567,-21.579 -24.118,-21.579 -6.744,0 -12.821,1.663 -17.626,4.071 -2.879,1.442 -4.186,4.843 -3.003,7.835 l 0.15,0.377 c 0.583,1.479 1.757,2.641 3.24,3.214 1.483,0.568 3.137,0.485 4.559,-0.222 2.775,-1.374 5.963,-2.372 9.404,-2.372 7.933,0 11.318,4.444 11.318,10.051 -0.212,8.041 -7.509,15.762 -22.531,29.192 l -6.708,6.073 c -1.385,1.255 -2.176,3.033 -2.176,4.902 0,3.753 3.044,6.796 6.796,6.796 h 35.352 c 3.654,0 6.614,-2.961 6.614,-6.609 -10e-4,-3.653 -2.961,-6.614 -6.615,-6.614 z" />
</g></svg>