<?xml version="1.0" encoding="UTF-8" standalone="no"?>
<!-- Generator: Adobe Illustrator 19.0.0, SVG Export Plug-In . SVG Version: 6.00 Build 0)  -->

<svg
   xmlns:dc="http://purl.org/dc/elements/1.1/"
   xmlns:cc="http://creativecommons.org/ns#"
   xmlns:rdf="http://www.w3.org/1999/02/22-rdf-syntax-ns#"
   xmlns:svg="http://www.w3.org/2000/svg"
   xmlns="http://www.w3.org/2000/svg"
   xmlns:sodipodi="http://sodipodi.sourceforge.net/DTD/sodipodi-0.dtd"
   xmlns:inkscape="http://www.inkscape.org/namespaces/inkscape"
   version="1.1"
   id="Capa_1"
   x="0px"
   y="0px"
   viewBox="0 0 50 50"
   xml:space="preserve"
   sodipodi:docname="location.svg"
   inkscape:version="0.92.4 (5da689c313, 2019-01-14)"
   width="50"
   height="50"><metadata
   id="metadata8678"><rdf:RDF><cc:Work
       rdf:about=""><dc:format>image/svg+xml</dc:format><dc:type
         rdf:resource="http://purl.org/dc/dcmitype/StillImage" /><dc:title></dc:title></cc:Work></rdf:RDF></metadata><defs
   id="defs8676" /><sodipodi:namedview
   pagecolor="#ffffff"
   bordercolor="#666666"
   borderopacity="1"
   objecttolerance="10"
   gridtolerance="10"
   guidetolerance="10"
   inkscape:pageopacity="0"
   inkscape:pageshadow="2"
   inkscape:window-width="2560"
   inkscape:window-height="1417"
   id="namedview8674"
   showgrid="false"
   inkscape:zoom="8"
   inkscape:cx="19.053245"
   inkscape:cy="25.198263"
   inkscape:window-x="2872"
   inkscape:window-y="-8"
   inkscape:window-maximized="1"
   inkscape:current-layer="Capa_1"
   inkscape:pagecheckerboard="true"
   showguides="false" />

<path
   style="opacity:1;fill:#0000ff;fill-opacity:1;stroke:#0000a5;stroke-width:1.134;stroke-linecap:butt;stroke-linejoin:round;stroke-miterlimit:4;stroke-dasharray:none;stroke-dashoffset:0;stroke-opacity:1"
   id="path19199"
   sodipodi:type="arc"
   sodipodi:cx="24.980989"
   sodipodi:cy="25.417908"
   sodipodi:rx="23.684572"
   sodipodi:ry="23.584846"
   sodipodi:start="1.5785337"
   sodipodi:end="1.5783536"
   sodipodi:open="true"
   d="M 24.797735,49.002048 A 23.684572,23.584846 0 0 1 1.297118,25.236487 23.684572,23.584846 0 0 1 25.162111,1.8337509 23.684572,23.584846 0 0 1 48.664877,25.597205 23.684572,23.584846 0 0 1 24.802,49.002081" /><g
   id="g8643"
   transform="translate(0,-8)">
</g>
<g
   id="g8645"
   transform="translate(0,-8)">
</g>
<g
   id="g8647"
   transform="translate(0,-8)">
</g>
<g
   id="g8649"
   transform="translate(0,-8)">
</g>
<g
   id="g8651"
   transform="translate(0,-8)">
</g>
<g
   id="g8653"
   transform="translate(0,-8)">
</g>
<g
   id="g8655"
   transform="translate(0,-8)">
</g>
<g
   id="g8657"
   transform="translate(0,-8)">
</g>
<g
   id="g8659"
   transform="translate(0,-8)">
</g>
<g
   id="g8661"
   transform="translate(0,-8)">
</g>
<g
   id="g8663"
   transform="translate(0,-8)">
</g>
<g
   id="g8665"
   transform="translate(0,-8)">
</g>
<g
   id="g8667"
   transform="translate(0,-8)">
</g>
<g
   id="g8669"
   transform="translate(0,-8)">
</g>
<g
   id="g8671"
   transform="translate(0,-8)">
</g>
<path
   style="opacity:1;fill:#000000;fill-opacity:1;stroke:#000000;stroke-width:1.13399994;stroke-linecap:round;stroke-linejoin:round;stroke-miterlimit:4;stroke-dasharray:none;stroke-dashoffset:0;stroke-opacity:1"
   id="path832"
   sodipodi:type="arc"
   sodipodi:cx="25.3125"
   sodipodi:cy="25.3125"
   sodipodi:rx="4"
   sodipodi:ry="4"
   sodipodi:start="1.5785281"
   sodipodi:end="1.4609514"
   sodipodi:open="true"
   d="m 25.281573,29.31238 a 4,4 0 0 1 -3.968135,-3.913237 4,4 0 0 1 3.794924,-4.081431 4,4 0 0 1 4.1912,3.673332 4,4 0 0 1 -3.548565,4.297348" /></svg>