<?xml version="1.0" encoding="UTF-8" standalone="no"?>
<svg
   xmlns:dc="http://purl.org/dc/elements/1.1/"
   xmlns:cc="http://creativecommons.org/ns#"
   xmlns:rdf="http://www.w3.org/1999/02/22-rdf-syntax-ns#"
   xmlns:svg="http://www.w3.org/2000/svg"
   xmlns="http://www.w3.org/2000/svg"
   xmlns:sodipodi="http://sodipodi.sourceforge.net/DTD/sodipodi-0.dtd"
   xmlns:inkscape="http://www.inkscape.org/namespaces/inkscape"
   height="50"
   width="50"
   inkscape:version="1.0 (4035a4fb49, 2020-05-01)"
   sodipodi:docname="other.svg"
   xml:space="preserve"
   viewBox="0 0 50 50"
   y="0px"
   x="0px"
   id="Capa_1"
   version="1.1"><metadata
   id="metadata8678"><rdf:RDF><cc:Work
       rdf:about=""><dc:format>image/svg+xml</dc:format><dc:type
         rdf:resource="http://purl.org/dc/dcmitype/StillImage" /><dc:title /></cc:Work></rdf:RDF></metadata><defs
   id="defs8676" /><sodipodi:namedview
   inkscape:document-rotation="0"
   inkscape:pagecheckerboard="true"
   inkscape:current-layer="Capa_1"
   inkscape:window-maximized="1"
   inkscape:window-y="-8"
   inkscape:window-x="-8"
   inkscape:cy="38.809764"
   inkscape:cx="41.405618"
   inkscape:zoom="5.6568545"
   showgrid="false"
   id="namedview8674"
   inkscape:window-height="1377"
   inkscape:window-width="2560"
   inkscape:pageshadow="2"
   inkscape:pageopacity="0"
   guidetolerance="10"
   gridtolerance="10"
   objecttolerance="10"
   borderopacity="1"
   bordercolor="#666666"
   pagecolor="#ffffff" />

<path
   d="M 24.797735,49.002048 A 23.684572,23.584846 0 0 1 1.297118,25.236487 23.684572,23.584846 0 0 1 25.162111,1.8337509 23.684572,23.584846 0 0 1 48.664877,25.597205 23.684572,23.584846 0 0 1 24.802,49.002081"
   sodipodi:open="true"
   sodipodi:end="1.5783536"
   sodipodi:start="1.5785337"
   sodipodi:ry="23.584846"
   sodipodi:rx="23.684572"
   sodipodi:cy="25.417908"
   sodipodi:cx="24.980989"
   sodipodi:type="arc"
   id="path19199"
   style="opacity:1;fill:#ffffff;fill-opacity:1;stroke:#000000;stroke-width:1.13385832;stroke-linecap:butt;stroke-linejoin:round;stroke-miterlimit:4;stroke-dasharray:none;stroke-dashoffset:0;stroke-opacity:1" /><g
   transform="translate(0,-8)"
   id="g8643">
</g>
<g
   transform="translate(0,-8)"
   id="g8645">
</g>
<g
   transform="translate(0,-8)"
   id="g8647">
</g>
<g
   transform="translate(0,-8)"
   id="g8649">
</g>
<g
   transform="translate(0,-8)"
   id="g8651">
</g>
<g
   transform="translate(0,-8)"
   id="g8653">
</g>
<g
   transform="translate(0,-8)"
   id="g8655">
</g>
<g
   transform="translate(0,-8)"
   id="g8657">
</g>
<g
   transform="translate(0,-8)"
   id="g8659">
</g>
<g
   transform="translate(0,-8)"
   id="g8661">
</g>
<g
   transform="translate(0,-8)"
   id="g8663">
</g>
<g
   transform="translate(0,-8)"
   id="g8665">
</g>
<g
   transform="translate(0,-8)"
   id="g8667">
</g>
<g
   transform="translate(0,-8)"
   id="g8669">
</g>
<g
   transform="translate(0,-8)"
   id="g8671">
</g>
<g
   transform="translate(0.125,-0.31966339)"
   id="g857"><path
     id="path879"
     style="fill:none;stroke:#000000;stroke-width:3.16086;stroke-linecap:round;stroke-miterlimit:4;stroke-dasharray:none"
     d="m 18.478986,19.094297 c 0,-3.816444 3.093841,-6.910283 6.910286,-6.910283 3.816446,0 6.910287,3.093838 6.910287,6.910283 0,3.816445 -3.093841,6.910285 -6.910287,6.910285 v 6.120267"
     sodipodi:nodetypes="csscc" /><path
     id="path888"
     style="fill:#000000;fill-opacity:1;stroke:#000000;stroke-width:1.53992;stroke-linecap:round;stroke-miterlimit:4;stroke-dasharray:none"
     d="m 25.397948,39.265746 a 1.1616784,1.1616804 0 0 1 -1.152653,-1.170582 1.1616784,1.1616804 0 0 1 1.170527,-1.152709 1.1616784,1.1616804 0 0 1 1.152759,1.170478 1.1616784,1.1616804 0 0 1 -1.170424,1.152817" /></g></svg>
