<?xml version="1.0" encoding="UTF-8" standalone="no"?>
<svg
   xmlns:dc="http://purl.org/dc/elements/1.1/"
   xmlns:cc="http://creativecommons.org/ns#"
   xmlns:rdf="http://www.w3.org/1999/02/22-rdf-syntax-ns#"
   xmlns:svg="http://www.w3.org/2000/svg"
   xmlns="http://www.w3.org/2000/svg"
   xmlns:sodipodi="http://sodipodi.sourceforge.net/DTD/sodipodi-0.dtd"
   xmlns:inkscape="http://www.inkscape.org/namespaces/inkscape"
   height="50"
   width="50"
   inkscape:version="1.0 (4035a4fb49, 2020-05-01)"
   sodipodi:docname="soil-red.svg"
   xml:space="preserve"
   viewBox="0 0 50 50"
   y="0px"
   x="0px"
   id="Capa_1"
   version="1.1"><metadata
   id="metadata8678"><rdf:RDF><cc:Work
       rdf:about=""><dc:format>image/svg+xml</dc:format><dc:type
         rdf:resource="http://purl.org/dc/dcmitype/StillImage" /><dc:title></dc:title></cc:Work></rdf:RDF></metadata><defs
   id="defs8676" /><sodipodi:namedview
   inkscape:document-rotation="0"
   inkscape:pagecheckerboard="true"
   inkscape:current-layer="Capa_1"
   inkscape:window-maximized="0"
   inkscape:window-y="0"
   inkscape:window-x="1273"
   inkscape:cy="70.55841"
   inkscape:cx="17.985237"
   inkscape:zoom="5.6568543"
   showgrid="false"
   id="namedview8674"
   inkscape:window-height="1368"
   inkscape:window-width="1278"
   inkscape:pageshadow="2"
   inkscape:pageopacity="0"
   guidetolerance="10"
   gridtolerance="10"
   objecttolerance="10"
   borderopacity="1"
   bordercolor="#666666"
   pagecolor="#ffffff" />

<path
   d="M 24.797735,49.002048 A 23.684572,23.584846 0 0 1 1.297118,25.236487 23.684572,23.584846 0 0 1 25.162111,1.8337509 23.684572,23.584846 0 0 1 48.664877,25.597205 23.684572,23.584846 0 0 1 24.802,49.002081"
   sodipodi:open="true"
   sodipodi:end="1.5783536"
   sodipodi:start="1.5785337"
   sodipodi:ry="23.584846"
   sodipodi:rx="23.684572"
   sodipodi:cy="25.417908"
   sodipodi:cx="24.980989"
   sodipodi:type="arc"
   id="path19199"
   style="opacity:1;fill:#ff2a2a;fill-opacity:1;stroke:#000000;stroke-width:1.13385832;stroke-linecap:butt;stroke-linejoin:round;stroke-miterlimit:4;stroke-dasharray:none;stroke-dashoffset:0;stroke-opacity:1" /><g
   transform="translate(0,-8)"
   id="g8643">
</g>
<g
   transform="translate(0,-8)"
   id="g8645">
</g>
<g
   transform="translate(0,-8)"
   id="g8647">
</g>
<g
   transform="translate(0,-8)"
   id="g8649">
</g>
<g
   transform="translate(0,-8)"
   id="g8651">
</g>
<g
   transform="translate(0,-8)"
   id="g8653">
</g>
<g
   transform="translate(0,-8)"
   id="g8655">
</g>
<g
   transform="translate(0,-8)"
   id="g8657">
</g>
<g
   transform="translate(0,-8)"
   id="g8659">
</g>
<g
   transform="translate(0,-8)"
   id="g8661">
</g>
<g
   transform="translate(0,-8)"
   id="g8663">
</g>
<g
   transform="translate(0,-8)"
   id="g8665">
</g>
<g
   transform="translate(0,-8)"
   id="g8667">
</g>
<g
   transform="translate(0,-8)"
   id="g8669">
</g>
<g
   transform="translate(0,-8)"
   id="g8671">
</g>
<g
   transform="translate(-3.550425e-4,4.2610167)"
   style="stroke-width:1.13386;stroke-miterlimit:4;stroke-dasharray:none"
   id="g1441"><path
     id="path1443"
     d="M 24.756392,6.5270135 C 24.354851,6.56076 23.970711,6.7711636 23.600257,7.0528357 23.10632,7.4283984 22.60355,7.9696526 22.080092,8.6420996 c -1.046915,1.3448942 -2.166117,3.2153574 -3.205493,5.2683354 -2.078755,4.105954 -3.847736,8.868189 -3.869513,11.699545 -0.04182,5.437728 4.300505,9.867096 9.712543,10.014217 0.05816,0.02466 0.12054,0.03782 0.183702,0.03877 h 0.0017 c 0.0011,5e-6 0.0022,5e-6 0.0034,0 0.0635,3.47e-4 0.126476,-0.01167 0.185387,-0.0354 5.413964,-0.06393 9.824525,-4.426234 9.865868,-9.864222 0.02156,-2.835723 -1.718729,-7.339756 -3.770078,-11.327089 C 30.161928,12.442592 29.054342,10.594933 28.024242,9.1898313 27.509194,8.4872804 27.015271,7.8940052 26.547896,7.4438316 26.080521,6.9936582 25.653113,6.6696796 25.164242,6.5556639 25.026573,6.5235567 24.89024,6.5157644 24.756392,6.5270135 Z"
     style="color:#000000;font-style:normal;font-variant:normal;font-weight:normal;font-stretch:normal;font-size:medium;line-height:normal;font-family:sans-serif;font-variant-ligatures:normal;font-variant-position:normal;font-variant-caps:normal;font-variant-numeric:normal;font-variant-alternates:normal;font-variant-east-asian:normal;font-feature-settings:normal;font-variation-settings:normal;text-indent:0;text-align:start;text-decoration:none;text-decoration-line:none;text-decoration-style:solid;text-decoration-color:#000000;letter-spacing:normal;word-spacing:normal;text-transform:none;writing-mode:lr-tb;direction:ltr;text-orientation:mixed;dominant-baseline:auto;baseline-shift:baseline;text-anchor:start;white-space:normal;shape-padding:0;shape-margin:0;inline-size:0;clip-rule:nonzero;display:inline;overflow:visible;visibility:visible;isolation:auto;mix-blend-mode:normal;color-interpolation:sRGB;color-interpolation-filters:linearRGB;solid-color:#000000;solid-opacity:1;vector-effect:none;fill:none;fill-opacity:1;fill-rule:nonzero;stroke:none;stroke-width:3.56743;stroke-linecap:round;stroke-linejoin:round;stroke-miterlimit:4;stroke-dasharray:none;stroke-dashoffset:0;stroke-opacity:1;color-rendering:auto;image-rendering:auto;shape-rendering:auto;text-rendering:auto;enable-background:accumulate;stop-color:#000000;stop-opacity:1" /><path
     sodipodi:nodetypes="ssssssssssssssssscccssscs"
     id="path1445"
     d="m 24.607422,4.75 c -0.923493,0.077613 -1.58324,0.5005896 -2.085938,0.8828125 -0.686991,0.5223509 -1.271068,1.1708542 -1.849609,1.9140625 -1.160831,1.4912332 -2.313429,3.434771 -3.388672,5.558594 -2.145608,4.238001 -4.035127,8.93137 -4.0625,12.490234 -0.04833,6.284527 4.944123,11.255043 11.140625,11.742188 0.424449,0.03337 0.731692,0.01738 1.101599,0 6.190575,-0.290782 11.231623,-5.289863 11.279297,-11.560547 0.02722,-3.579799 -1.855167,-8.047949 -3.96875,-12.15625 C 31.713879,11.561578 30.573365,9.6495018 29.462891,8.1347656 28.909448,7.379842 28.364255,6.7159885 27.785156,6.1582031 27.234415,5.6277322 26.563102,5.0499003 25.570312,4.8183594 25.241145,4.7415907 24.910498,4.7245283 24.607422,4.75 Z m 0.703125,3.1719719 c 0.317956,0.2902267 0.798738,0.8654468 1.275391,1.5156254 0.949725,1.2954667 2.023826,3.1241927 3.015624,5.0520067 1.989118,3.866363 3.588169,9.168748 3.572266,11.260396 -0.03407,4.480851 -3.636067,8.040997 -8.103516,8.09375 -0.04894,0.0012 -0.09781,0.0045 -0.146484,0.0098 -0.05253,-0.0063 -0.105321,-0.01016 -0.158203,-0.01172 -4.465794,-0.121398 -8.011023,-3.737983 -7.976563,-8.21875 0.01618,-2.103848 1.665833,-7.694692 3.677735,-11.668599 1.003509,-1.982133 2.088485,-3.824156 3.021484,-5.0227105 0.468375,-0.6016856 0.890524,-1.0368505 1.191407,-1.265625 0.247528,-0.2678332 0.565376,0.196054 0.630859,0.2558264 z"
     style="color:#000000;font-style:normal;font-variant:normal;font-weight:normal;font-stretch:normal;font-size:medium;line-height:normal;font-family:sans-serif;font-variant-ligatures:normal;font-variant-position:normal;font-variant-caps:normal;font-variant-numeric:normal;font-variant-alternates:normal;font-variant-east-asian:normal;font-feature-settings:normal;font-variation-settings:normal;text-indent:0;text-align:start;text-decoration:none;text-decoration-line:none;text-decoration-style:solid;text-decoration-color:#000000;letter-spacing:normal;word-spacing:normal;text-transform:none;writing-mode:lr-tb;direction:ltr;text-orientation:mixed;dominant-baseline:auto;baseline-shift:baseline;text-anchor:start;white-space:normal;shape-padding:0;shape-margin:0;inline-size:0;clip-rule:nonzero;display:inline;overflow:visible;visibility:visible;isolation:auto;mix-blend-mode:normal;color-interpolation:sRGB;color-interpolation-filters:linearRGB;solid-color:#000000;solid-opacity:1;vector-effect:none;fill:#000000;fill-opacity:1;fill-rule:nonzero;stroke:none;stroke-width:3.56743;stroke-linecap:round;stroke-linejoin:round;stroke-miterlimit:4;stroke-dasharray:none;stroke-dashoffset:0;stroke-opacity:1;color-rendering:auto;image-rendering:auto;shape-rendering:auto;text-rendering:auto;enable-background:accumulate;stop-color:#000000;stop-opacity:1" /></g><path
   sodipodi:nodetypes="cccczccccc"
   d="m 25.070878,10.728762 -2.867188,1.683594 -2.632812,4.308594 -2.966797,6.957031 c 0,0 4.690959,-1.959084 10.437519,2.569184 5.74656,4.528268 4.927715,10.803862 4.927715,10.803862 l 3.300782,-6.539062 -1.876953,-6.779297 -4.728516,-9.689452 z"
   style="fill:#000000;stroke:none;stroke-width:1px;stroke-linecap:butt;stroke-linejoin:miter;stroke-opacity:1"
   id="path1447" /></svg>
