<?xml version="1.0" encoding="UTF-8" standalone="no"?>
<!-- Generator: Adobe Illustrator 19.0.0, SVG Export Plug-In . SVG Version: 6.00 Build 0)  -->

<svg
   xmlns:dc="http://purl.org/dc/elements/1.1/"
   xmlns:cc="http://creativecommons.org/ns#"
   xmlns:rdf="http://www.w3.org/1999/02/22-rdf-syntax-ns#"
   xmlns:svg="http://www.w3.org/2000/svg"
   xmlns="http://www.w3.org/2000/svg"
   xmlns:sodipodi="http://sodipodi.sourceforge.net/DTD/sodipodi-0.dtd"
   xmlns:inkscape="http://www.inkscape.org/namespaces/inkscape"
   version="1.1"
   id="Capa_1"
   x="0px"
   y="0px"
   viewBox="0 0 50 50"
   xml:space="preserve"
   sodipodi:docname="soundred.svg"
   inkscape:version="0.92.4 (5da689c313, 2019-01-14)"
   width="50"
   height="50"><metadata
   id="metadata8678"><rdf:RDF><cc:Work
       rdf:about=""><dc:format>image/svg+xml</dc:format><dc:type
         rdf:resource="http://purl.org/dc/dcmitype/StillImage" /><dc:title></dc:title></cc:Work></rdf:RDF></metadata><defs
   id="defs8676" /><sodipodi:namedview
   pagecolor="#ffffff"
   bordercolor="#666666"
   borderopacity="1"
   objecttolerance="10"
   gridtolerance="10"
   guidetolerance="10"
   inkscape:pageopacity="0"
   inkscape:pageshadow="2"
   inkscape:window-width="1440"
   inkscape:window-height="877"
   id="namedview8674"
   showgrid="false"
   inkscape:zoom="8"
   inkscape:cx="-15.634255"
   inkscape:cy="30.198263"
   inkscape:window-x="-8"
   inkscape:window-y="-8"
   inkscape:window-maximized="1"
   inkscape:current-layer="Capa_1"
   inkscape:pagecheckerboard="true" />

<path
   style="opacity:1;fill:#ff2a2a;fill-opacity:1;stroke:#000000;stroke-width:1.13385832;stroke-linecap:butt;stroke-linejoin:round;stroke-miterlimit:4;stroke-dasharray:none;stroke-dashoffset:0;stroke-opacity:1"
   id="path19199"
   sodipodi:type="arc"
   sodipodi:cx="24.980989"
   sodipodi:cy="25.417908"
   sodipodi:rx="23.684572"
   sodipodi:ry="23.584846"
   sodipodi:start="1.5785337"
   sodipodi:end="1.5783536"
   sodipodi:open="true"
   d="M 24.797735,49.002048 A 23.684572,23.584846 0 0 1 1.297118,25.236487 23.684572,23.584846 0 0 1 25.162111,1.8337509 23.684572,23.584846 0 0 1 48.664877,25.597205 23.684572,23.584846 0 0 1 24.802,49.002081" /><g
   id="g8643"
   transform="translate(0,-8)">
</g>
<g
   id="g8645"
   transform="translate(0,-8)">
</g>
<g
   id="g8647"
   transform="translate(0,-8)">
</g>
<g
   id="g8649"
   transform="translate(0,-8)">
</g>
<g
   id="g8651"
   transform="translate(0,-8)">
</g>
<g
   id="g8653"
   transform="translate(0,-8)">
</g>
<g
   id="g8655"
   transform="translate(0,-8)">
</g>
<g
   id="g8657"
   transform="translate(0,-8)">
</g>
<g
   id="g8659"
   transform="translate(0,-8)">
</g>
<g
   id="g8661"
   transform="translate(0,-8)">
</g>
<g
   id="g8663"
   transform="translate(0,-8)">
</g>
<g
   id="g8665"
   transform="translate(0,-8)">
</g>
<g
   id="g8667"
   transform="translate(0,-8)">
</g>
<g
   id="g8669"
   transform="translate(0,-8)">
</g>
<g
   id="g8671"
   transform="translate(0,-8)">
</g>
<g
   transform="matrix(0.56544421,0,0,0.52063266,0.6419374,25.028138)"
   id="g13306"
   style="stroke-width:2;stroke-miterlimit:4;stroke-dasharray:none">
	<path
   inkscape:connector-curvature="0"
   id="path13302"
   d="m 58.667303,0.07571158 c -0.552,0 -1,0.447 -1,1.00000002 v 6 c 0,7.7200004 -6.28,14.0000004 -14,14.0000004 -7.72,0 -14,-6.28 -14,-14.0000004 v -6 c 0,-0.55300002 -0.448,-1.00000002 -1,-1.00000002 -0.552,0 -1,0.447 -1,1.00000002 v 6 c 0,8.4850004 6.644,15.4290004 15,15.9490004 v 5.051 h -5 c -0.552,0 -1,0.447 -1,1 0,0.553 0.448,1 1,1 h 12 c 0.552,0 1,-0.447 1,-1 0,-0.553 -0.448,-1 -1,-1 h -5 v -5.051 c 8.356,-0.52 15,-7.465 15,-15.9490004 v -6 c 0,-0.55300002 -0.448,-1.00000002 -1,-1.00000002 z"
   style="stroke-width:2;stroke-miterlimit:4;stroke-dasharray:none" />
	<path
   inkscape:connector-curvature="0"
   id="path13304"
   d="m 43.667303,18.075712 c 6.065,0 11,-4.935 11,-11.0000004 V -16.924288 c 0,-6.065 -4.935,-11 -11,-11 -6.065,0 -11,4.935 -11,11 V 7.0757116 c 0,6.0650004 4.935,11.0000004 11,11.0000004 z m -9,-35 c 0,-4.963 4.038,-9 9,-9 4.962,0 9,4.037 9,9 V 7.0757116 c 0,4.9630004 -4.038,9.0000004 -9,9.0000004 -4.962,0 -9,-4.037 -9,-9.0000004 z"
   style="stroke-width:2;stroke-miterlimit:4;stroke-dasharray:none" />
</g></svg>